<?xml version="1.0" encoding="UTF-8" standalone="no"?>
<!-- Created with Inkscape (http://www.inkscape.org/) -->
<svg
   xmlns:dc="http://purl.org/dc/elements/1.1/"
   xmlns:cc="http://creativecommons.org/ns#"
   xmlns:rdf="http://www.w3.org/1999/02/22-rdf-syntax-ns#"
   xmlns:svg="http://www.w3.org/2000/svg"
   xmlns="http://www.w3.org/2000/svg"
   xmlns:sodipodi="http://sodipodi.sourceforge.net/DTD/sodipodi-0.dtd"
   xmlns:inkscape="http://www.inkscape.org/namespaces/inkscape"
   width="1139"
   height="1262"
   id="svg2913"
   sodipodi:version="0.32"
   inkscape:version="0.46"
   sodipodi:docbase="G:\Inkscape"
   sodipodi:docname="Antarctica_blank.svg"
   inkscape:export-filename="D:\Wikipédia\Guatemala carte.svg"
   inkscape:export-xdpi="72.000000"
   inkscape:export-ydpi="72.000000"
   version="1.0"
   inkscape:output_extension="org.inkscape.output.svg.inkscape">
  <defs
     id="defs2915">
    <inkscape:perspective
       sodipodi:type="inkscape:persp3d"
       inkscape:vp_x="0 : 402 : 1"
       inkscape:vp_y="0 : 1000 : 0"
       inkscape:vp_z="804 : 402 : 1"
       inkscape:persp3d-origin="402 : 268 : 1"
       id="perspective27" />
  </defs>
  <sodipodi:namedview
     id="base"
     pagecolor="#ffffff"
     bordercolor="#666666"
     borderopacity="1.0"
     inkscape:pageopacity="0.0"
     inkscape:pageshadow="2"
     inkscape:zoom="1"
     inkscape:cx="606.83958"
     inkscape:cy="1006.4754"
     inkscape:document-units="px"
     inkscape:current-layer="svg2913"
     inkscape:window-width="1600"
     inkscape:window-height="1149"
     inkscape:window-x="0"
     inkscape:window-y="22"
     showguides="true"
     inkscape:guide-bbox="true"
     width="804px"
     height="804px"
     showgrid="false" />
  <metadata
     id="metadata2918">
    <rdf:RDF>
      <cc:Work
         rdf:about="">
        <dc:format>image/svg+xml</dc:format>
        <dc:type
           rdf:resource="http://purl.org/dc/dcmitype/StillImage" />
        <dc:creator>
          <cc:Agent>
            <dc:title>STyx</dc:title>
          </cc:Agent>
        </dc:creator>
        <dc:date>2008-03-11</dc:date>
        <cc:license
           rdf:resource="http://creativecommons.org/licenses/by-sa/2.5/" />
        <dc:rights>
          <cc:Agent>
            <dc:title>by-sa 3.0 + GPL</dc:title>
          </cc:Agent>
        </dc:rights>
        <dc:description>Carte de l'Antarctique</dc:description>
        <dc:language>none</dc:language>
        <dc:title>Carte de l'Antarctique</dc:title>
        <dc:publisher>
          <cc:Agent>
            <dc:title>Inkscape</dc:title>
          </cc:Agent>
        </dc:publisher>
        <dc:coverage />
        <dc:subject>
          <rdf:Bag>
            <rdf:li>map</rdf:li>
          </rdf:Bag>
        </dc:subject>
      </cc:Work>
      <cc:License
         rdf:about="http://creativecommons.org/licenses/by-sa/2.5/">
        <cc:permits
           rdf:resource="http://web.resource.org/cc/Reproduction" />
        <cc:permits
           rdf:resource="http://web.resource.org/cc/Distribution" />
        <cc:requires
           rdf:resource="http://web.resource.org/cc/Notice" />
        <cc:requires
           rdf:resource="http://web.resource.org/cc/Attribution" />
        <cc:permits
           rdf:resource="http://web.resource.org/cc/DerivativeWorks" />
        <cc:requires
           rdf:resource="http://web.resource.org/cc/ShareAlike" />
      </cc:License>
    </rdf:RDF>
  </metadata>
  <rect
     y="-0.0010319019"
     x="-0.0046017058"
     height="1262.1213"
     width="1139.6569"
     id="Océan (fond)"
     style="fill:#c6ecff;fill-opacity:1;stroke:none;display:inline" />
  <path
     id="Kerguelen"
     style="fill:#e0e0e0;fill-opacity:1;fill-rule:nonzero;stroke:#0978ab;stroke-width:1px;stroke-opacity:1"
     d="M 1058.9953,433.99897 L 1063.9953,432.99897 L 1074.9953,428.99897 L 1072.9953,435.99897 L 1069.9953,439.99897 L 1076.9953,447.99897 L 1071.9953,447.99897 L 1064.9953,443.99897 L 1058.9953,433.99897 z M 1034.9953,484.99897 L 1035.9953,491.99897 L 1031.9953,489.99897 L 1034.9953,484.99897 z" />
  <path
     id="Antarctique"
     style="fill:#fefee9;fill-opacity:1;fill-rule:nonzero;stroke:#0978ab;stroke-width:1px;stroke-opacity:1"
     d="M 271.93303,514.41046 C 271.63273,514.41046 270.02028,513.27708 268.34981,511.89184 L 265.3126,509.37322 L 267.51876,509.33062 L 269.72491,509.28801 L 271.10197,511.84923 C 271.85935,513.25791 272.23333,514.41046 271.93303,514.41046 z M 666.49548,891.88346 L 661.34937,891.87247 L 658.62486,890.29058 C 657.12638,889.42055 654.28121,887.57184 652.30227,886.18234 L 648.70422,883.656 L 633.26272,883.9463 L 617.82123,884.23661 L 615.3339,881.99052 C 613.96587,880.75516 610.44416,878.58687 607.50786,877.17209 L 602.16914,874.59975 L 602.74556,872.68995 C 603.06257,871.63955 603.21648,868.56418 603.08754,865.85577 L 602.85314,860.93141 L 604.16456,858.49226 L 605.47599,856.0531 L 607.36213,856.0531 L 609.24828,856.0531 L 613.24041,847.64258 L 617.23254,839.23206 L 617.49186,835.50382 L 617.75116,831.77556 L 620.7863,828.55967 L 623.82144,825.34376 L 622.16167,821.80941 C 621.24878,819.86552 619.16322,814.13061 617.52706,809.06515 L 614.55222,799.85525 L 607.92861,791.46562 L 601.30501,783.07598 L 604.00404,778.72894 C 605.48851,776.33806 607.59861,773.64208 608.69316,772.73786 L 610.68323,771.09384 L 609.81483,765.9774 L 608.94642,760.86097 L 606.52748,756.91243 C 605.19707,754.74073 604.10638,752.09094 604.10374,751.024 C 604.10109,749.95707 602.97859,747.0034 601.60927,744.46031 C 600.23997,741.91722 596.62161,737.26052 593.56848,734.11209 C 590.51536,730.96365 585.05271,725.26862 581.42926,721.45646 L 574.84118,714.52526 L 564.70441,709.47227 L 554.56765,704.41928 L 548.51043,698.133 C 545.17895,694.67554 540.57972,690.47085 538.2899,688.78925 L 534.12659,685.73178 L 530.47659,685.73178 L 526.82657,685.73178 L 525.99414,687.89109 L 525.1617,690.05041 L 527.59284,691.41278 C 528.92998,692.16207 531.69743,694.37423 533.74273,696.32868 L 537.46148,699.88221 L 535.88741,701.77012 L 534.31336,703.65802 L 535.92962,707.54208 L 537.54587,711.42613 L 536.83963,712.12912 L 536.13338,712.83213 L 533.3679,711.3589 L 530.60244,709.88566 L 528.75488,711.41194 L 526.90733,712.93823 L 526.90733,717.26356 L 526.90733,721.5889 L 525.93027,721.5889 C 525.39289,721.5889 524.20774,720.4007 523.2966,718.94843 L 521.63999,716.30798 L 518.17376,716.70736 L 514.70754,717.10676 L 511.68766,722.86272 L 508.66777,728.6187 L 509.46478,733.57993 L 510.26177,738.54116 L 507.97071,737.57558 C 506.71062,737.04451 504.52176,736.54384 503.10658,736.46297 L 500.53353,736.31593 L 500.12644,739.83761 L 499.71936,743.35929 L 497.47246,743.35929 L 495.22555,743.35929 L 491.80285,746.91541 L 488.38013,750.47152 L 489.15408,755.21888 L 489.92803,759.96624 L 491.69282,761.42415 L 493.45763,762.88207 L 493.45763,766.4301 L 493.45763,769.97811 L 491.52784,770.71524 L 489.59805,771.45236 L 489.59805,773.44517 L 489.59805,775.43797 L 492.81437,776.65519 L 496.03068,777.87241 L 496.03068,779.72028 C 496.03068,780.73662 495.67928,782.47971 495.24977,783.59381 L 494.46887,785.61947 L 490.35605,785.61947 L 486.24321,785.61947 L 482.28564,781.45748 C 480.10898,779.16839 477.65063,775.98277 476.82265,774.37833 L 475.31724,771.46116 L 471.15178,771.7404 L 466.98631,772.01965 L 465.57813,771.15334 L 464.16994,770.28703 L 460.80242,772.92376 L 457.43488,775.56047 L 457.43488,777.32247 L 457.43488,779.08446 L 454.54019,782.10919 L 451.64551,785.13393 L 446.4994,784.89566 C 443.66904,784.7646 439.47175,784.00944 437.17208,783.21751 C 434.87242,782.42558 431.10933,781.11259 428.80966,780.29975 L 424.62845,778.82186 L 420.76887,778.96127 C 418.6461,779.03795 415.60668,778.82761 414.0146,778.49384 L 411.11992,777.88701 L 411.11992,775.18524 L 411.11992,772.48347 L 406.61961,767.20582 C 404.14444,764.3031 401.39449,761.21803 400.5086,760.35011 C 399.62273,759.48219 397.53096,757.46523 395.86024,755.86797 C 394.18952,754.27072 388.75339,747.7774 383.77995,741.43838 C 378.80651,735.09935 373.94989,729.45203 372.98746,728.88878 L 371.23759,727.86469 L 371.23759,724.97156 L 371.23759,722.07843 L 369.59418,719.84127 L 367.95078,717.60412 L 365.41296,717.13327 C 364.01717,716.8743 362.62951,716.61832 362.32928,716.56443 C 362.02903,716.51054 363.09457,715.07717 364.69713,713.37917 L 367.61088,710.29188 L 367.1224,707.93657 L 366.6339,705.58126 L 363.06519,705.83341 L 359.49648,706.08557 L 359.91,703.91249 L 360.3235,701.73942 L 365.13729,701.34196 L 369.95106,700.94451 L 369.95106,695.3891 L 369.95106,689.83369 L 366.06657,682.48312 L 362.18208,675.13254 L 362.99343,670.82757 L 363.80478,666.52261 L 362.63238,666.52261 C 361.98756,666.52261 360.7292,667.24295 359.83603,668.12337 L 358.21207,669.72414 L 356.94174,667.48307 L 355.67141,665.242 L 353.16228,665.242 L 350.65316,665.242 L 350.65316,667.07572 L 350.65316,668.90942 L 347.0243,671.48152 L 345.39544,677.55361 L 343.79492,673.14781 L 342.19439,668.742 L 340.43457,668.742 L 338.67476,668.742 L 337.84876,671.33251 C 337.39446,672.75729 337.18445,675.79103 337.38206,678.07416 L 337.74135,682.2253 L 336.7589,683.80762 C 336.21856,683.1779 335.37212,685.38994 334.87792,685.38994 L 333.9794,685.38994 L 333.76431,678.66673 C 333.646,674.96897 333.55724,669.63842 333.56706,666.82108 C 333.57689,664.00373 333.52786,659.68167 333.45811,657.21649 C 333.38838,654.75132 333.17374,648.30867 332.98115,642.89951 L 332.63098,633.06467 L 330.52325,630.7337 L 328.41553,628.40273 L 330.88539,625.37949 L 333.35526,622.35624 L 333.35526,619.93109 L 333.35526,617.50594 L 337.13684,605.77231 L 342.91843,597.53869 L 342.26282,595.85337 C 341.90221,594.92645 339.87943,593.18638 337.76774,591.98655 L 333.92831,589.80504 L 333.92831,587.9634 L 333.92831,586.12175 L 337.14463,585.31822 L 340.36094,584.51468 L 340.36094,583.30835 C 340.36094,582.64487 341.51523,581.03159 342.92602,579.72328 L 345.4911,577.34454 L 344.99513,559.99886 L 344.49917,542.65317 L 343.10233,540.05514 C 342.33405,538.62623 339.91119,535.95427 337.71819,534.11745 L 333.73089,530.77779 L 328.29753,530.77779 L 324.36418,529.77779 L 323.03979,528.45949 L 321.71539,527.14118 L 311.97754,526.05415 C 306.62173,525.45628 301.60201,524.57482 300.82263,524.09535 L 299.40556,523.22359 L 299.40556,519.71344 L 299.40556,516.20331 L 297.86173,514.66658 L 296.3179,513.12984 L 293.43481,513.12984 L 290.55172,513.12984 L 289.8254,511.96003 C 289.42593,511.31664 286.41805,509.49833 283.14121,507.91933 L 277.18334,505.04844 L 274.84557,506.50169 L 272.50778,507.95495 L 271.69412,506.64447 L 270.88046,505.33398 L 272.30024,503.63111 L 273.72001,501.92825 L 270.48121,499.81585 L 267.24239,497.70346 L 269.24239,496.21476 C 269.24239,495.39598 268.04248,493.45468 266.57595,491.9008 C 265.1094,490.34691 263.79323,488.29281 263.65112,487.33613 C 263.50901,486.37945 262.62037,483.74296 261.67636,481.47729 L 259.95998,477.3579 L 257.40767,476.55155 L 254.85537,475.7452 L 255.49916,473.29467 L 258.64294,471.34413 L 256.80574,463.35308 C 255.79527,458.95799 258.57076,454.99761 258.08459,453.94111 L 257.20066,452.02019 L 259.6442,442.73586 C 259.61316,437.62947 259.68299,433.45148 259.7994,433.45143 C 259.91579,433.45136 261.40595,435.93563 263.11085,438.97201 L 266.21068,444.49269 L 264.99694,447.20028 L 263.78321,449.90786 L 263.36668,455.99444 C 264.51261,459.34206 262.45018,461.12647 261.45018,463.90424 L 261.45018,466.22746 L 265.10412,469.46816 C 267.11379,471.25056 267.34797,473.00218 268.68009,473.97177 L 271.10213,475.73466 L 269.23791,479.20195 L 267.37371,482.66925 L 270.55947,485.43567 L 271.74523,488.20209 L 274.57314,493.94276 L 277.40104,499.68342 L 281.90909,502.09314 L 286.41713,504.50285 L 291.29751,504.65436 L 296.17787,504.80587 L 297.31452,502.24465 L 298.45116,499.68342 L 306.50607,499.83954 L 314.56097,499.99566 L 318.61869,502.0106 L 322.6764,504.02556 L 327.23073,505.85598 C 330.56061,506.31271 334.84255,507.33408 336.74618,508.12567 L 340.20732,509.56494 L 340.82039,511.89852 L 341.43344,514.23211 L 344.65107,513.42825 L 347.86869,512.6244 L 349.25631,515.20526 L 350.64393,517.78614 L 349.86764,519.79983 L 349.09134,521.81351 L 350.30901,521.81351 L 351.52667,521.81351 L 352.99213,518.61198 L 354.45757,515.41046 L 355.77168,515.41046 L 357.08579,515.41046 L 357.08579,518.47497 L 357.08579,521.53949 L 359.13168,522.32097 L 361.17756,523.10244 L 362.54317,522.26233 L 363.90877,521.42222 L 365.32175,523.3296 C 366.0989,524.37867 368.03735,525.92767 369.62943,526.77184 L 372.52411,528.30669 L 372.52411,532.14852 L 372.52411,535.99036 L 374.60187,539.14682 L 376.67962,542.3033 L 378.94389,542.3033 L 381.20817,542.3033 L 382.01225,546.30521 C 382.45449,548.50626 382.81633,553.91058 382.81633,558.31482 L 382.81633,566.32252 L 385.5895,568.15537 L 388.36267,569.98822 L 386.08943,575.91328 L 383.81618,581.83833 L 378.92283,583.78726 C 376.2315,584.85917 373.68546,586.29028 373.26497,586.9675 L 372.50047,588.19882 L 374.66307,590.35148 L 376.82567,592.50414 L 381.42915,591.74656 C 383.96108,591.3299 388.23123,590.37299 390.91838,589.62012 L 395.80412,588.25124 L 396.99754,585.12675 L 398.19096,582.00225 L 400.0659,582.00225 L 401.94083,582.00225 L 402.67101,584.29227 L 403.40119,586.58228 L 401.10141,591.01548 C 399.83654,593.45374 397.76025,597.00808 396.48746,598.91403 L 394.17328,602.3794 L 395.00336,603.71632 C 395.45991,604.45164 396.55938,605.05326 397.44662,605.05326 L 399.05978,605.05326 L 402.75749,601.21142 L 406.4552,597.36959 L 408.78756,597.36959 L 411.11992,597.36959 L 411.11988,600.25096 L 411.11984,603.13234 L 406.61703,606.70861 L 402.11423,610.28489 L 402.11423,612.15121 L 402.11423,614.01754 L 404.71097,614.01754 L 407.30769,614.01754 L 414.03829,610.59021 C 417.7401,608.70518 421.01974,606.96675 421.32636,606.72703 C 421.63299,606.48731 421.19879,605.60926 420.36146,604.77579 C 419.52415,603.94233 418.83908,602.29367 418.83908,601.1121 L 418.83908,598.96381 L 420.6058,597.5043 L 422.37252,596.04478 L 424.46538,596.84421 L 426.55824,597.64361 L 426.55824,601.34844 L 426.55824,605.05326 L 428.44277,605.05326 L 430.32728,605.05326 L 431.70434,602.49203 L 433.0814,599.93081 L 440.02828,599.93081 L 446.97516,599.93081 L 450.48473,601.25901 L 453.9943,602.58721 L 455.39296,601.15368 L 456.79162,599.72016 L 452.49132,596.11158 L 448.19102,592.50301 L 448.64424,590.16046 L 449.09745,587.81793 L 452.56065,586.60559 L 456.02387,585.39325 L 461.14755,587.07643 L 466.27125,588.75963 L 471.79213,587.36472 L 477.31302,585.96982 L 479.37563,587.82787 L 481.43823,589.68592 L 483.62873,589.68592 L 485.81922,589.68592 L 486.47817,587.97662 L 487.13713,586.26731 L 482.62542,579.59378 L 478.11371,572.92023 L 477.28165,568.50538 L 476.44959,564.09053 L 477.25896,560.88058 L 478.06832,557.67063 L 482.54666,557.67063 L 487.025,557.67063 L 487.025,554.1405 C 487.025,552.19893 486.45587,548.63506 485.76028,546.2208 L 484.49554,541.83125 L 486.26712,535.07838 L 488.03868,528.32551 L 490.74815,524.89682 L 493.45763,521.46811 L 493.45763,517.23187 L 493.45763,512.99563 L 490.75749,508.44029 L 488.05737,503.88495 L 486.81802,503.88495 C 486.13638,503.88495 482.67322,504.83092 479.12209,505.98709 L 472.66552,508.08921 L 470.1194,505.55482 L 467.5733,503.02043 L 467.43178,498.65039 L 467.29025,494.28037 L 469.31653,485.95639 C 470.431,481.37821 471.92784,475.90359 472.64285,473.79058 C 473.35786,471.67758 474.65108,467.64365 475.51667,464.8263 L 477.09046,459.70386 L 480.99129,454.25849 L 484.89211,448.81314 L 489.20554,446.27985 C 491.57792,444.88654 493.74953,443.01489 494.03133,442.12063 C 494.31312,441.22636 494.90487,438.33163 495.34633,435.68789 L 496.14898,430.88109 L 498.1762,429.28483 C 499.29117,428.40689 501.86977,426.04287 503.90641,424.03145 L 507.60942,420.37435 L 507.60942,418.58885 L 507.60942,416.80337 L 505.29368,416.80337 C 504.02001,416.80337 502.33365,417.44469 501.54619,418.22853 L 500.11445,419.65368 L 498.71583,418.79325 L 497.31721,417.93284 L 497.31721,414.83976 L 497.31721,411.7467 L 501.17679,409.76001 L 505.03637,407.77332 L 505.05979,405.56514 L 505.08319,403.35695 L 508.91937,397.72165 C 511.02926,394.62222 512.74667,391.45271 512.73583,390.67829 C 512.725,389.90385 512.22351,388.49655 511.62142,387.55093 L 510.5267,385.83163 L 513.24927,380.83829 C 514.74669,378.09194 516.39118,375.84019 516.90371,375.83437 C 517.41623,375.82856 518.75232,377.58847 519.8728,379.74528 L 521.91004,383.66675 L 524.0359,383.25923 L 526.16176,382.8517 L 526.9544,379.0176 C 527.39035,376.90884 528.44689,373.88688 529.30225,372.30213 C 530.15759,370.71737 531.33572,369.42075 531.92029,369.42075 L 532.98315,369.42075 L 532.37137,372.60635 L 531.75959,375.79195 L 533.52696,376.46703 L 535.29431,377.14212 L 541.5203,375.98432 L 547.74628,374.82653 L 551.15697,376.59789 C 553.03285,377.57214 555.84989,378.3728 557.41708,378.37714 L 560.26649,378.38503 L 561.6413,375.828 L 563.01611,373.27095 L 568.40299,370.53541 L 573.78988,367.79986 L 582.19014,367.16777 L 590.5904,366.53567 L 592.52019,364.96552 L 594.44998,363.39536 L 600.00298,363.58771 L 605.55598,363.78007 L 608.78028,367.88102 L 612.00459,371.98197 L 613.6836,371.98197 C 614.60706,371.98197 616.03012,371.18137 616.84596,370.20287 L 618.32931,368.42377 L 621.80486,367.76242 L 625.28043,367.10109 L 628.9342,368.98185 L 632.58797,370.86259 L 639.38753,370.01695 L 646.18708,369.17131 L 650.55192,373.49621 C 652.95256,375.87489 657.19295,379.49787 659.97499,381.54725 L 665.03324,385.2734 L 676.05658,387.08913 C 682.11941,388.08776 688.73608,388.86118 690.76029,388.80781 L 694.44067,388.71078 L 698.3641,390.73033 L 702.28752,392.74989 L 709.49902,392.23066 L 716.71053,391.71142 L 720.85566,388.66088 L 725.0008,385.61033 L 725.80855,386.41436 L 726.61629,387.21839 L 726.79673,397.20859 L 726.97715,407.19879 L 730.17874,411.45827 L 733.38032,415.71775 L 737.05369,414.98646 L 740.72707,414.25516 L 744.6622,410.95919 L 748.59734,407.66322 L 751.28831,408.31986 C 752.76836,408.68102 757.16346,409.37354 761.0552,409.85881 L 768.1311,410.74111 L 769.70278,411.97801 C 770.56721,412.65829 773.4619,413.79708 776.13542,414.50863 C 778.80893,415.22019 782.73318,415.93613 784.85594,416.09961 L 788.71553,416.39686 L 789.16043,419.48149 C 789.40513,421.17803 790.19969,423.28647 790.92611,424.16689 L 792.2469,425.76765 L 795.15563,425.76765 L 798.06438,425.76765 L 798.7711,423.07758 L 799.47781,420.38751 L 800.96302,421.30119 L 802.44822,422.21488 L 801.8611,424.44969 L 801.27398,426.68448 L 802.45621,428.7873 L 803.63844,430.8901 L 805.47126,430.8901 L 807.30409,430.8901 L 809.29995,427.04827 C 810.39768,424.93526 811.77349,423.20643 812.35733,423.20643 C 812.94116,423.20643 815.38677,423.86112 817.79203,424.66128 L 822.16522,426.11615 L 825.81803,429.46358 C 827.82707,431.30467 830.33359,434.45577 831.38807,436.46602 L 833.30531,440.12103 L 832.43901,446.39076 L 831.57272,452.6605 L 828.32714,452.6605 L 825.08158,452.6605 L 826.01281,456.18218 C 826.52499,458.1191 825.02668,459.50896 825.12769,462.3263 L 824.81133,470.94875 L 827.27008,474.00997 C 828.0724,475.41865 830.64117,477.66443 831.14514,480.83395 L 832.06143,486.5967 L 833.96971,489.58816 L 835.87799,492.5796 L 835.46768,508.90835 C 837.44202,516.51414 843.41597,520.81461 843.85425,521.5205 L 844.65111,522.80393 L 842.53302,524.54978 L 840.41494,526.29565 L 830.64682,526.52655 C 825.27434,526.65353 818.86034,526.94167 816.39348,527.16685 L 811.90825,527.57626 L 811.42684,530.06448 L 810.94545,532.5527 L 807.87128,534.95972 L 804.79711,537.36674 L 804.79711,540.47533 L 804.79711,543.58391 L 798.36448,543.58391 L 791.93184,543.58391 L 791.93184,544.81947 C 791.93184,545.49902 793.1573,546.70784 794.65507,547.50574 L 797.3783,548.95647 L 810.27537,549.23553 L 823.17243,549.51459 L 825.5635,552.45387 L 827.95459,555.39316 L 827.95459,557.8125 L 827.95459,560.23186 L 829.16287,560.23186 C 829.82743,560.23186 833.04679,562.53696 836.31702,565.3543 L 842.26288,570.47675 L 845.46484,570.47675 L 848.6668,570.47675 L 852.44987,572.42406 L 856.23294,574.37136 L 858.72458,579.23293 C 860.09499,581.90679 862.06601,584.79652 863.10463,585.65453 C 864.14325,586.51255 865.48817,587.12609 866.09334,587.01798 C 866.69851,586.90986 867.96332,586.88964 868.90404,586.97305 L 870.61442,587.1247 L 869.76864,590.95778 L 868.92287,594.79086 L 871.52433,598.08288 L 874.12579,601.37489 L 873.41095,603.22913 L 872.69613,605.08338 L 876.13487,612.3127 L 879.5736,619.54202 L 878.7589,624.34194 L 877.94421,629.14187 L 880.05325,635.32532 L 882.16229,641.50879 L 881.49028,645.37157 L 880.81826,649.23435 L 881.92487,654.95383 L 883.03148,660.67331 L 881.41383,662.97221 L 879.79618,665.27112 L 880.41399,671.97977 C 880.75381,675.66953 881.55696,679.6969 882.19879,680.92949 L 883.36578,683.17056 L 885.17438,683.17056 C 886.16911,683.17056 887.38041,683.81067 887.86618,684.59303 L 888.74938,686.01552 L 885.19537,688.83635 L 881.64137,691.65718 L 883.10157,694.37304 L 884.56177,697.08891 L 884.56177,701.45605 L 884.56177,705.82319 L 873.1356,710.04788 C 868.50121,716.49646 864.95812,725.76532 864.57854,725.27257 C 859.95656,719.27257 864.53905,729.177 863.42852,730.28242 L 861.4094,733.29227 L 862.69336,735.68036 C 863.39955,736.99382 863.97734,739.21774 863.97734,740.62241 L 863.97734,743.17635 L 866.10629,745.29551 L 868.23524,747.41467 L 868.81692,753.4405 L 869.3986,759.46632 L 867.55212,760.99173 C 866.53655,761.83069 863.43829,762.98605 860.66708,763.55917 L 855.62852,764.60122 L 855.16165,767.10652 C 854.90487,768.48444 854.10725,770.33217 853.38916,771.21259 L 852.08354,772.81336 L 849.25632,772.81336 L 846.42912,772.81336 L 840.91134,777.51465 L 835.39356,782.21594 L 833.03101,787.70223 L 830.66844,793.18853 L 829.81019,801.24965 L 828.95193,809.31078 L 827.17236,812.13855 L 825.3928,814.96632 L 825.70879,817.80927 L 826.0248,820.6522 L 822.80848,821.57704 C 821.03951,822.08571 817.43603,822.55935 814.80073,822.62955 L 810.00929,822.7572 L 808.12219,826.38967 L 806.2351,830.02214 L 808.08915,833.57942 C 809.10889,835.53593 809.94322,838.11929 809.94322,839.32025 L 809.94322,841.50381 L 805.09937,847.81799 C 802.43524,851.2908 798.27616,856.29322 795.85696,858.93448 L 791.4584,863.73677 L 788.55473,863.73677 L 785.65106,863.73677 L 784.85749,865.0149 C 784.42102,865.71786 780.76851,867.7606 776.74077,869.55433 C 772.71304,871.34805 766.72708,874.23055 763.43864,875.95987 C 760.1502,877.6892 756.72216,879.10411 755.82079,879.10411 C 754.91941,879.10411 753.26792,879.86511 752.15081,880.79523 C 751.03371,881.72535 747.80397,883.16193 744.97361,883.9876 L 739.82751,885.48884 L 738.30883,883.45413 L 736.79015,881.41941 L 729.30314,881.74436 L 721.81613,882.0693 L 719.68944,881.13764 L 717.56275,880.20598 L 712.10895,882.97551 L 706.65517,885.74504 L 703.68638,884.1635 L 700.71761,882.58195 L 696.7422,884.22105 L 692.76681,885.86014 L 691.01103,888.35533 L 689.25525,890.85054 L 686.644,889.45946 C 685.20781,888.69438 682.90299,888.06839 681.52218,888.06839 C 680.14136,888.06839 677.35336,888.92925 675.3266,889.98142 L 671.64159,891.89444 L 666.49548,891.88346 z M 319.23848,562.28979 C 318.11921,562.71731 317.14306,562.86137 317.06922,562.60994 C 316.9954,562.35849 316.801,560.04521 316.63721,557.46928 L 316.33943,552.78579 L 314.12763,550.58417 L 311.91584,548.38255 L 312.30823,545.02276 L 312.70062,541.66299 L 308.51941,541.2617 L 304.33819,540.86041 L 304.33819,538.38032 L 304.33819,535.90024 L 303.20919,535.90024 C 302.58825,535.90024 301.30966,536.82442 300.36788,537.95396 L 298.65558,540.00767 L 293.60072,539.33279 L 288.54586,538.65792 L 286.58196,536.70304 L 284.61807,534.74818 L 286.13784,532.92537 L 287.65761,531.10257 L 300.16653,531.60055 L 312.67544,532.09851 L 319.98622,534.14038 L 327.297,536.18226 L 331.25592,540.03504 L 335.21484,543.88781 L 335.21484,547.02158 C 335.21484,548.74516 334.61553,551.27001 333.88305,552.63238 C 333.15057,553.99474 331.97077,555.10941 331.2613,555.10941 L 329.97134,555.10941 L 330.34167,551.58773 L 330.71199,548.06605 L 327.09625,547.65336 L 323.4805,547.24067 L 321.77098,548.65293 L 320.06145,550.06518 L 319.43474,553.32854 L 318.80803,556.59189 L 320.57881,557.26828 L 322.34957,557.94466 L 322.34957,559.72856 C 322.34957,560.7097 322.10744,561.51247 321.81153,561.51247 C 321.5156,561.51247 320.35773,561.86225 319.23848,562.28979 z M 462.52588,554.3288 L 460.29342,554.3288 L 458.24998,547.17862 L 453.70654,539.52844 L 447.36208,533.31198 L 441.01763,527.09554 L 439.64019,523.16241 L 438.26277,519.22929 L 441.34181,517.2211 L 444.42085,515.21292 L 447.38991,515.63184 L 450.35898,516.05076 L 450.77009,518.93214 L 451.1812,521.81351 L 453.58885,521.81351 L 455.9965,521.81351 L 456.84066,523.17311 C 457.30495,523.9209 459.07902,525.06036 460.78304,525.70524 L 463.88127,526.87777 L 465.9965,531.29307 L 468.11174,535.70837 L 467.68503,545.26859 L 464.75833,554.3288 L 462.52588,554.3288 z M 269.2367,437.29316 L 267.52134,437.29316 L 268.37901,436.43941 L 269.2367,435.58568 L 270.09439,436.43941 L 270.95207,437.29316 L 269.2367,437.29316 z M 597.13024,795.76326 L 594.66441,795.86436 L 595.44168,795.09066 L 596.21896,794.31696 L 597.90752,794.98956 L 599.59609,795.66217 L 597.13024,795.76326 z M 260.87428,430.8901 C 260.52048,430.8901 260.23102,430.60196 260.23102,430.24979 C 260.23102,429.89763 260.52048,429.60949 260.87428,429.60949 C 261.22807,429.60949 261.51754,429.89763 261.51754,430.24979 C 261.51754,430.60196 261.22807,430.8901 260.87428,430.8901 z M 515.26585,772.52439 C 514.16996,772.73203 512.86736,772.49779 512.37117,772.00388 L 511.469,771.10588 L 511.51527,765.2364 L 511.56154,759.36694 L 514.75432,763.20877 L 517.94709,767.05061 L 517.60273,769.59874 L 517.25837,772.14689 L 515.26585,772.52439 z M 378.02305,764.34908 C 377.43974,764.34908 376.55041,763.68537 376.04675,762.8742 L 375.13101,761.3993 L 377.48506,759.6859 C 378.7798,758.74352 380.00316,758.13577 380.20365,758.33533 C 380.40413,758.5349 380.23414,759.96963 379.82588,761.52363 L 379.0836,764.34908 L 378.02305,764.34908 z M 380.67022,754.10419 L 378.95485,754.10419 L 379.81253,753.25044 L 380.67022,752.39671 L 381.52791,753.25044 L 382.38558,754.10419 L 380.67022,754.10419 z M 374.20829,746.42052 C 373.60033,746.42052 372.85932,745.98831 372.5616,745.46006 C 372.26387,744.93181 371.63974,742.91484 371.17464,740.97792 L 370.32899,737.45624 L 372.83465,737.45624 L 375.34032,737.45624 L 377.36201,739.46863 C 378.47394,740.57543 379.38369,742.24261 379.38369,743.17345 L 379.38369,744.86588 L 377.34868,745.6432 C 376.22943,746.07073 374.81625,746.42052 374.20829,746.42052 z M 320.61256,675.48313 L 319.7042,677.11968 L 318.81057,676.23016 L 317.91693,675.34063 L 317.91693,667.7862 L 317.91693,660.23179 L 319.26801,657.71888 L 320.61909,655.20598 L 321.97401,656.03951 L 327.32893,656.87306 L 322.42492,665.35982 C 325.92772,671.02754 321.11215,674.58302 320.61256,675.48313 z M 426.25172,582.73422 C 425.92877,583.05571 424.1288,582.11629 422.25179,580.64662 L 418.83908,577.97452 L 418.83908,576.14655 L 418.83908,574.31858 L 420.038,574.31858 C 420.6974,574.31858 422.49738,576.08059 424.03793,578.23415 C 425.57848,580.38771 426.57469,582.41274 426.25172,582.73422 z M 337.22056,571.75736 C 336.20093,571.75736 334.98509,571.14274 334.51867,570.39155 L 333.67066,569.02574 L 334.38726,568.31243 L 335.10386,567.59911 L 337.08914,568.35744 L 339.07442,569.11575 L 339.07442,570.43656 L 339.07442,571.75736 L 337.22056,571.75736 z M 448.42919,570.47675 C 447.7216,570.47675 447.14267,569.90047 447.14267,569.19614 C 447.14267,568.4918 447.7216,567.91553 448.42919,567.91553 C 449.13678,567.91553 449.71572,568.4918 449.71572,569.19614 C 449.71572,569.90047 449.13678,570.47675 448.42919,570.47675 z M 291.49391,558.29803 L 290.1864,559.1024 L 290.1864,557.10591 C 290.1864,556.00784 290.4417,555.10941 290.75373,555.10941 C 291.06577,555.10941 291.65415,555.64587 292.06124,556.30153 L 292.80142,557.49365 L 291.49391,558.29803 z M 237.99539,452.49897 L 238.49539,448.99897 L 241.99539,441.99897 L 243.99539,445.99897 L 237.99539,452.49897 z M 242.99539,428.49897 L 239.99539,432.49897 L 242.49539,440.49897 L 242.49539,433.99897 L 244.49539,430.99897 L 242.99539,428.49897 z M 264.49539,508.99897 L 277.99539,522.99897 L 282.99539,521.99897 L 282.49539,521.99897 L 280.99539,517.99897 L 272.99539,511.49897 L 269.49539,507.99897 L 264.49539,508.99897 z M 264.49539,431.99897 L 258.49539,428.99897 L 261.99539,423.99897 L 267.49539,428.49897 L 264.49539,431.99897 z M 243.99539,410.49897 L 244.99539,405.99897 L 240.49539,409.49897 L 243.99539,410.49897 z M 288.99539,346.99897 C 283.99539,352.99897 285.99539,355.49897 285.99539,355.49897 L 291.99539,348.49897 L 288.99539,346.99897 z M 330.49539,579.49897 L 335.99539,579.99897 L 337.99539,574.49897 L 329.99539,574.99897 L 330.49539,579.49897 z M 897.99539,679.99897 L 898.99539,669.99897 L 905.99539,671.99897 L 895.99539,671.99897 L 897.99539,679.99897 z M 276.99539,471.99897 L 282.99539,483.99897 L 286.99539,475.99897 L 276.99539,471.99897 z M 547.99539,360.99897 L 546.99539,366.99897 L 551.99539,365.99897 L 547.99539,360.99897 z M 301.99539,550.99897 L 294.99539,551.99897 L 297.99539,561.99897 L 301.99539,550.99897 z" />
  <path
     id="Océanie"
     style="fill:#e0e0e0;fill-opacity:1;fill-rule:nonzero;stroke:#0978ab;stroke-width:1px;stroke-opacity:1"
     d="M 1142.2605,1263.9869 L 914.98611,1268.1877 L 913.71167,1259.3886 L 914.81879,1254.2652 L 915.92591,1249.1417 L 913.63274,1241.234 C 912.37151,1236.8849 910.68058,1232.206 909.87512,1230.8366 L 908.41066,1228.347 L 909.12973,1226.3574 L 909.84878,1224.3679 L 916.93666,1219.2577 L 924.02455,1214.1473 L 929.07529,1202.6058 C 931.85321,1196.2579 934.12605,1190.4282 934.12605,1189.6508 L 934.12605,1188.2377 L 937.30491,1186.9545 L 940.48377,1185.6713 L 943.29452,1187.6265 L 946.10524,1189.5818 L 951.491,1189.5818 L 956.87676,1189.5818 L 958.26303,1182.4922 L 959.64931,1175.4025 L 962.26939,1172.3817 L 964.88948,1169.3607 L 970.75445,1167.8892 L 976.61935,1166.4178 L 981.00895,1162.6934 L 985.39845,1158.969 L 991.43045,1157.5369 L 997.46255,1156.1047 L 1002.6728,1156.9243 L 1007.883,1157.7438 L 1010.5144,1160.9763 C 1011.9617,1162.7543 1014.5146,1164.9653 1016.1876,1165.8896 L 1019.2296,1167.5703 L 1024.0293,1167.4903 L 1028.8291,1167.4101 L 1031.709,1164.7269 L 1034.5889,1162.0435 L 1035.2048,1163.8919 C 1035.5436,1164.9087 1037.1068,1167.106 1038.6787,1168.7748 L 1041.5365,1171.809 L 1044.2308,1170.9163 C 1045.7128,1170.4254 1047.2641,1169.4643 1047.6782,1168.7807 L 1048.431,1167.5375 L 1047.2246,1163.3641 L 1046.0181,1159.1904 L 1047.3398,1156.7744 L 1048.6614,1154.3583 L 1048.6981,1157.4596 L 1048.7349,1160.5609 L 1050.6921,1162.857 L 1052.6493,1165.1533 L 1053.7148,1171.2085 L 1054.7803,1177.2639 L 1057.3967,1180.2208 L 1060.013,1183.1777 L 1061.7084,1183.1777 L 1063.4038,1183.1777 L 1062.5798,1175.0091 L 1061.7559,1166.8405 L 1063.8729,1163.4102 L 1065.9898,1159.9799 L 1065.9923,1153.967 C 1065.9937,1150.6598 1065.7758,1146.8015 1065.5081,1145.393 L 1065.0214,1142.8317 L 1067.8352,1142.4081 L 1070.6491,1141.9843 L 1072.9812,1144.2249 L 1075.3132,1146.4657 L 1081.7906,1147.036 L 1088.2679,1147.6063 L 1090.4503,1146.3096 L 1092.6329,1145.0128 L 1096.8653,1147.4213 L 1101.0978,1149.8298 L 1102.0421,1148.2515 L 1102.9863,1146.6732 L 1113.0048,1142.4065 L 1143.0233,1136.14 L 1142.2605,1263.9869 z M 641.8705,1279.2313 C 641.17922,1279.2313 639.6653,1277.7906 638.50622,1276.0298 L 636.39881,1272.8283 L 634.23102,1272.8283 C 633.03875,1272.8283 631.40743,1273.4811 630.60589,1274.2789 L 629.14852,1275.7296 L 627.13227,1274.9595 L 625.11599,1274.1893 L 625.11599,1269.7401 L 625.11599,1265.291 L 627.9129,1260.4155 C 629.45122,1257.7339 632.66301,1253.1044 635.05022,1250.1275 L 639.39061,1244.7149 L 638.05996,1242.24 L 636.7293,1239.765 L 641.28841,1237.0874 C 643.7959,1235.6148 646.66946,1234.4099 647.6741,1234.4099 L 649.50068,1234.4099 L 651.36975,1231.5285 L 653.23881,1228.6472 L 655.52542,1219.0426 L 657.81203,1209.438 L 662.37008,1203.4057 L 666.92812,1197.3732 L 671.94485,1195.9412 L 676.9616,1194.5091 L 682.58533,1196.647 L 688.20906,1198.7848 L 692.18979,1197.4036 L 696.17053,1196.0223 L 697.30928,1196.7228 L 698.44802,1197.4233 L 698.44802,1199.8488 C 698.44802,1201.1827 697.72449,1203.886 696.84018,1205.856 C 695.95588,1207.8261 692.91271,1212.8956 690.07759,1217.1217 L 684.92283,1224.8053 L 677.91849,1231.2084 C 674.0661,1234.7301 667.26733,1241.163 662.81012,1245.5037 L 654.70611,1253.396 L 654.70611,1255.878 L 654.70611,1258.36 L 651.48979,1264.3813 C 649.72082,1267.693 648.27348,1271.2365 648.27348,1272.2557 L 648.27348,1274.1089 L 645.70042,1276.6701 C 644.28524,1278.0788 642.56177,1279.2313 641.8705,1279.2313 z M 905.05264,1180.063 L 903.24811,1180.063 L 901.75554,1177.1816 C 900.93464,1175.5969 899.2537,1173.1477 898.02012,1171.739 L 895.77726,1169.1778 L 894.95972,1162.8809 L 894.14219,1156.584 L 896.34135,1154.1652 L 898.54051,1151.7463 L 896.82443,1149.011 L 895.10833,1146.2758 L 898.81133,1143.3138 L 902.51431,1140.3518 L 908.56692,1140.8129 L 914.61952,1141.2739 L 918.05828,1143.7004 C 919.94959,1145.0349 924.75211,1148.1915 928.73052,1150.7151 L 935.96401,1155.3034 L 935.96401,1157.5574 L 935.96401,1159.8113 L 930.8179,1161.5939 C 927.98754,1162.5743 924.80339,1163.3855 923.742,1163.3965 L 921.81221,1163.4165 L 914.3347,1171.7398 L 906.85717,1180.063 L 905.05264,1180.063 z" />
  <path
     id="Amérique"
     style="fill:#e0e0e0;fill-opacity:1;fill-rule:nonzero;stroke:#0978ab;stroke-width:1px;stroke-opacity:1"
     d="M -3.5046037,370.49897 L 12.495396,378.49897 L 15.495396,378.49897 L 16.495396,383.49897 L 20.495396,383.49897 L 20.995396,384.99897 L 17.995396,390.99897 L 18.495396,399.49897 L 22.995396,406.99897 L 25.495396,410.49897 L 30.995396,409.49897 L 32.995396,407.49897 L 37.995396,406.49897 L 42.995396,399.49897 L 42.495396,397.49897 L 46.495396,397.49897 L 50.995396,401.99897 L 52.995396,401.99897 L 56.495396,407.49897 L 55.995396,415.99897 L 58.495396,419.99897 L 61.995396,424.49897 L 68.495392,428.49897 L 69.495392,438.49897 L 71.495392,443.99897 L 78.495392,445.49897 L 86.995392,447.49897 L 91.995392,445.49897 L 94.995392,445.49897 L 98.495392,449.49897 L 105.99539,448.99897 L 113.99539,446.99897 L 124.49539,442.49897 L 130.49539,437.49897 L 131.99539,434.49897 L 132.99539,431.99897 L 135.49539,434.49897 L 134.99539,442.99897 L 136.99539,443.49897 L 133.99539,451.49897 L 130.99539,456.49897 L 127.49539,458.99897 L 137.99539,458.49897 L 132.49539,462.49897 L 129.99539,464.49897 L 126.49539,465.49897 L 129.99539,466.99897 L 126.99539,470.49897 L 122.99539,470.49897 L 122.49539,465.49897 L 119.99539,468.49897 L 119.99539,471.49897 L 124.49539,473.49897 L 119.99539,477.99897 L 115.99539,475.49897 L 112.99539,486.49897 L 112.99539,474.49897 L 111.49539,474.49897 L 105.49539,482.99897 L 101.99539,480.99897 L 107.99539,475.99897 L 109.49539,474.49897 L 104.49539,469.49897 L 103.99539,467.49897 L 113.99539,469.49897 L 116.49539,461.99897 L 114.99539,461.49897 L 111.49539,465.99897 L 105.99539,465.99897 L 106.49539,460.49897 L 104.49539,457.49897 L 101.99539,464.49897 L 102.99539,465.99897 L 99.995391,466.49897 L 94.995392,462.49897 L 96.995392,449.49897 L 94.995392,447.99897 L 91.495392,452.99897 L 92.995392,455.99897 L 96.495392,452.99897 L 96.495392,455.49897 L 93.995392,456.99897 L 92.995392,465.99897 L 100.99539,470.99897 L 105.99539,472.99897 L 102.49539,479.99897 L 97.495392,482.49897 L 94.995392,480.49897 L 96.995392,474.49897 L 93.495392,470.49897 L 92.995392,474.49897 L 92.995392,479.99897 L 90.495392,486.49897 L 87.495392,487.99897 L 84.495392,482.49897 L 89.495392,481.49897 L 88.495392,479.49897 L 88.495392,472.49897 L 86.995392,480.99897 L 84.995392,485.49897 L 86.495392,487.49897 L 79.495392,489.49897 L 80.495392,485.49897 L 77.495392,477.99897 L 75.495392,479.99897 L 78.995392,488.49897 L 72.995392,485.99897 L 68.495392,488.99897 L 67.995392,486.49897 L 65.495396,482.99897 L 61.995396,487.49897 L 59.495396,488.49897 L 56.995396,484.49897 L 51.995396,485.49897 L 42.995396,482.99897 L 45.495396,487.99897 L 48.495396,486.99897 L 50.995396,491.49897 L 42.995396,488.49897 L 39.995396,487.49897 L 41.995396,488.49897 L 46.995396,492.49897 L 45.995396,493.99897 L 45.495396,498.49897 L 42.995396,493.49897 L 40.495396,495.49897 L 37.995396,494.99897 L 41.495396,491.99897 L 38.495396,489.99897 L 34.495396,488.49897 L 30.495396,484.49897 L 37.495396,484.49897 L 31.995396,479.99897 L 24.995396,479.49897 L 21.995396,478.99897 L 22.495396,483.49897 L 14.495396,475.49897 L 16.995396,473.99897 L 14.495396,472.99897 L 8.9953963,477.99897 L 3.9953963,478.49897 L -5.0046037,482.49897 M 128.99539,357.49897 L 128.99539,363.99897 L 129.49539,375.49897 L 126.49539,376.99897 L 123.99539,372.99897 L 123.99539,368.49897 L 122.49539,367.49897 L 120.49539,364.49897 L 121.99539,359.99897 L 127.49539,360.49897 L 125.49539,357.99897 L 128.99539,357.49897 z M 118.99539,366.99897 L 117.49539,372.49897 L 112.49539,377.49897 L 113.49539,378.99897 L 117.99539,376.49897 L 121.49539,379.49897 L 118.49539,384.49897 L 122.99539,382.49897 L 122.99539,372.49897 L 120.49539,370.49897 L 118.99539,366.99897 z M 117.49539,376.49897 L 116.99539,380.99897 L 119.99539,380.99897 L 117.49539,376.49897 z M 137.49539,421.49897 L 136.49539,426.99897 L 136.99539,431.99897 L 139.99539,425.49897 L 137.49539,421.49897 z M 64.995396,488.49897 L 66.995392,493.99897 L 67.495392,500.99897 L 61.995396,497.99897 L 62.495396,494.99897 L 60.995396,488.49897 L 64.995396,488.49897 z M 82.995392,497.99897 L 86.495392,495.99897 L 90.995392,491.49897 L 86.995392,499.99897 L 82.995392,497.99897 z M 98.995392,485.49897 L 100.99539,481.99897 L 104.99539,488.99897 L 103.49539,489.49897 L 100.49539,487.99897 L 98.995392,491.99897 L 95.995392,489.49897 L 98.995392,485.49897 z M 24.495396,488.99897 L 30.495396,488.49897 L 32.495396,491.49897 L 32.495396,493.49897 L 28.995396,491.99897 L 23.995396,491.99897 L 24.495396,488.99897 z M 69.495392,495.99897 L 74.995392,495.99897 L 77.495392,498.49897 L 74.495392,499.99897 L 72.495392,498.49897 L 70.495392,499.99897 L 69.495392,495.99897 z M 78.995392,489.49897 L 78.995392,492.49897 L 75.495392,494.49897 L 80.495392,492.99897 L 78.995392,489.49897 z M 116.49539,478.49897 L 116.49539,478.49897 z M 118.99539,480.49897 L 117.99539,476.99897 L 116.49539,479.99897 L 118.99539,480.49897 z M 18.995396,484.99897 L 19.995396,487.49897 L 22.995396,487.49897 L 21.495396,485.99897 L 18.995396,484.99897 z M 48.495396,494.49897 L 52.495396,497.99897 L 56.995396,498.49897 L 53.495396,494.49897 L 51.995396,493.49897 L 48.495396,494.49897 z M 264.49539,250.99897 L 273.49539,245.49897 L 277.99539,245.49897 L 283.49539,245.49897 L 285.49539,246.99897 L 285.49539,251.49897 L 279.99539,248.99897 L 273.99539,248.99897 L 264.49539,250.99897 z M 351.49539,227.99897 L 351.49539,227.99897 z M 353.99539,227.49897 L 350.99539,227.99897 L 350.99539,229.49897 L 353.99539,227.49897 z M 361.99539,234.49897 L 361.99539,236.99897 L 365.49539,235.99897 L 361.99539,234.49897 z M 366.99539,242.49897 L 366.99539,242.49897 z M 369.99539,242.49897 L 366.49539,242.49897 L 367.49539,243.99897 L 369.99539,242.49897 z M 374.49539,248.99897 L 374.49539,248.99897 z M 372.49539,250.49897 L 375.49539,247.99897 L 375.99539,250.99897 L 372.49539,250.49897 z M 374.49539,261.99897 L 370.49539,264.99897 L 374.99539,264.49897 L 374.49539,261.99897 z M 376.49539,255.99897 L 376.49539,255.99897 z M 376.49539,257.99897 L 376.49539,257.99897 z M 375.99539,256.49897 L 378.49539,258.49897 L 375.99539,256.49897 z M 357.49539,230.49897 L 355.99539,233.49897 L 358.49539,233.49897 L 357.49539,230.49897 z"
     sodipodi:nodetypes="cccccccccccccccccccccccccccccccccccccccccccccccccccccccccccccccccccccccccccccccccccccccccccccccccccccccccccccccccccccccccccccccccccccccccccccccccccccccccccccccccccccccccccccccccccccccccccccccccccccccccccccccccccccccccccccccccccccccccccccccccccccccccccccccccccccccccccccccccccc" />
  <g
     id="méridiens et parallèles"
     transform="translate(-4.6036652e-3,-18.001032)">
    <path
       sodipodi:type="arc"
       style="fill:none;stroke:#000000;stroke-width:0.30000001;stroke-miterlimit:4;stroke-dasharray:4, 4;stroke-dashoffset:0;stroke-opacity:0.75;display:inline"
       id="cercle antarctique"
       sodipodi:cx="561"
       sodipodi:cy="648"
       sodipodi:rx="317"
       sodipodi:ry="317"
       d="M 878,648 A 317,317 0 1 1 244,648 A 317,317 0 1 1 878,648 z" />
    <path
       sodipodi:type="arc"
       style="fill:none;stroke:#000000;stroke-width:0.30000001px;stroke-opacity:0.75;display:inline"
       id="latitude-80"
       sodipodi:cx="561"
       sodipodi:cy="648"
       sodipodi:rx="136"
       sodipodi:ry="136"
       d="M 697,648 A 136,136 0 1 1 425,648 A 136,136 0 1 1 697,648 z" />
    <path
       sodipodi:type="arc"
       style="fill:none;stroke:#000000;stroke-width:0.30000001px;stroke-opacity:0.75;display:inline"
       id="latitude-70"
       sodipodi:cx="561"
       sodipodi:cy="648"
       sodipodi:rx="271"
       sodipodi:ry="271"
       d="M 832,648 A 271,271 0 1 1 290,648 A 271,271 0 1 1 832,648 z" />
    <path
       sodipodi:type="arc"
       style="fill:none;stroke:#000000;stroke-width:0.30000001px;stroke-opacity:0.75;display:inline"
       id="latitude-60"
       sodipodi:cx="561"
       sodipodi:cy="648"
       sodipodi:rx="402"
       sodipodi:ry="402"
       d="M 963,648 A 402,402 0 1 1 159,648 A 402,402 0 1 1 963,648 z" />
    <path
       sodipodi:type="arc"
       style="fill:none;stroke:#000000;stroke-width:0.30000001px;stroke-opacity:0.75;display:inline"
       id="latitude-50"
       sodipodi:cx="561"
       sodipodi:cy="648"
       sodipodi:rx="532"
       sodipodi:ry="532"
       d="M 1093,648 A 532,532 0 1 1 29,648 A 532,532 0 1 1 1093,648 z" />
    <path
       style="fill:none;stroke:#000000;stroke-width:0.30000001px;stroke-opacity:0.75;display:inline"
       d="M 561,0 L 561,1278"
       id="Méridien de Greenwitch" />
    <path
       style="fill:none;stroke:#000000;stroke-width:0.30000001px;stroke-opacity:0.75;display:inline"
       d="M 0,648 L 1134,648"
       id="longitude-90" />
    <path
       id="path3315"
       d="M 1140.5476,312.21908 C -18.661672,982.87802 -18.661672,984.48247 -18.661672,984.48247"
       style="fill:none;stroke:#000000;stroke-width:0.30000001px;stroke-opacity:0.75;display:inline" />
    <path
       id="path3325"
       d="M -19.10464,311.8683 C 1140.1046,982.52724 1140.1046,984.13169 1140.1046,984.13169"
       style="fill:none;stroke:#000000;stroke-width:0.30000001px;stroke-opacity:0.75;display:inline" />
    <path
       id="path3327"
       d="M 947.04339,1314.2858 C 276.38443,155.07662 185.86829,0.395375 185.86829,0.395375"
       style="fill:none;stroke:#000000;stroke-width:0.30000001px;stroke-opacity:0.75;display:inline"
       sodipodi:nodetypes="cc" />
    <path
       id="path3329"
       d="M 149.00076,1360.0407 C 819.65973,200.83146 947.12918,-19.785853 947.12918,-19.785853"
       style="fill:none;stroke:#000000;stroke-width:0.30000001px;stroke-opacity:0.75;display:inline"
       sodipodi:nodetypes="cc" />
  </g>
  <text
     id="note"
     y="-18.775234"
     x="8.4528999"
     style="font-size:12px;font-style:normal;font-weight:normal;fill:#000000;fill-opacity:1;stroke:none;stroke-width:1px;stroke-linecap:butt;stroke-linejoin:miter;stroke-opacity:1;font-family:Bitstream Vera Sans"
     xml:space="preserve"><tspan
       y="-18.775234"
       x="8.4528999"
       id="tspan3773"
       sodipodi:role="line">Note : Les images sources sont mises en commentaire dans le code SVG</tspan></text>
</svg>
